# xmcd CD database file
#
# Track frame offsets:
#	150
#	9482
#	22955
#	42413
#	58349
#	71532
#	93044
#	109138
#	122141
#	138339
#	156097
#	177911
#
# Disc length: 2595 seconds
#
# Revision: 0
# Processed by: cddbd v1.5PL3 Copyright (c) Steve Scherf et al.
# Submitted via: CDex 1.50beta10
#
DISCID=9b0a210c
DTITLE=矢井田瞳 - Candlize
DYEAR=1900
DGENRE=JPop
TTITLE0=キャンドル
TTITLE1=Buzzstyle
TTITLE2=Look Back Again
TTITLE3=Not Still Over
TTITLE4=Over The Distance（Album Version）
TTITLE5=I’m Here Saying Nothing（Album Version）
TTITLE6=空の作り方
TTITLE7=贅沢な世界
TTITLE8=手と涙
TTITLE9=Life’s Like A Love
TTITLE10=Maze
TTITLE11=?
EXTD=
EXTT0=
EXTT1=
EXTT2=
EXTT3=
EXTT4=
EXTT5=
EXTT6=
EXTT7=
EXTT8=
EXTT9=
EXTT10=
EXTT11=
PLAYORDER=
